<?xml version="1.0" encoding="UTF-8" standalone="no"?>
<!DOCTYPE svg PUBLIC "-//W3C//DTD SVG 1.1//EN"
 "http://www.w3.org/Graphics/SVG/1.1/DTD/svg11.dtd">
<!-- Generated by graphviz version 15.1.1 (0)
 -->
<!-- Title: G Pages: 1 -->
<svg width="1628pt" height="678pt"
 viewBox="0.00 0.00 1628.00 678.00" xmlns="http://www.w3.org/2000/svg" xmlns:xlink="http://www.w3.org/1999/xlink">
<g id="graph0" class="graph" transform="scale(1 1) rotate(0) translate(4 674)">
<title>G</title>
<polygon fill="white" stroke="none" points="-4,4 -4,-674 1624,-674 1624,4 -4,4"/>
<!-- github.com/0magnet/audioprism&#45;go -->
<g id="node1" class="node">
<title>github.com/0magnet/audioprism&#45;go</title>
<g id="a_node1"><a xlink:href="https://pkg.go.dev/github.com/0magnet/audioprism-go" xlink:title="github.com/0magnet/audioprism&#45;go\l259 / 8.0KB\l" target="_graphviz">
<polygon fill="none" stroke="#6b9107" stroke-width="2" stroke-opacity="0.698039" points="252,-508 36,-508 36,-472 252,-472 252,-508"/>
<text xml:space="preserve" text-anchor="start" x="44" y="-493.25" font-family="Times,serif" font-size="10.00">github.com/0magnet/audioprism&#45;go</text>
<text xml:space="preserve" text-anchor="start" x="44" y="-480.5" font-family="Times,serif" font-size="10.00">259 / 8.0KB</text>
</a>
</g>
</g>
<!-- github.com/0magnet/audioprism&#45;go/cmd/a/coreweb/commands -->
<g id="node5" class="node">
<title>github.com/0magnet/audioprism&#45;go/cmd/a/coreweb/commands</title>
<g id="a_node5"><a xlink:href="https://pkg.go.dev/github.com/0magnet/audioprism-go/cmd/a/coreweb/commands" xlink:title="github.com/0magnet/audioprism&#45;go/cmd/a/coreweb/commands\l243 / 7.0KB\l" target="_graphviz">
<polygon fill="none" stroke="#910713" stroke-width="2" stroke-opacity="0.698039" points="756,-522 396,-522 396,-486 756,-486 756,-522"/>
<text xml:space="preserve" text-anchor="start" x="404" y="-507.25" font-family="Times,serif" font-size="10.00">github.com/0magnet/audioprism&#45;go/cmd/a/coreweb/commands</text>
<text xml:space="preserve" text-anchor="start" x="404" y="-494.5" font-family="Times,serif" font-size="10.00">243 / 7.0KB</text>
</a>
</g>
</g>
<!-- github.com/0magnet/audioprism&#45;go&#45;&gt;github.com/0magnet/audioprism&#45;go/cmd/a/coreweb/commands -->
<g id="edge1" class="edge">
<title>github.com/0magnet/audioprism&#45;go:e&#45;&gt;github.com/0magnet/audioprism&#45;go/cmd/a/coreweb/commands</title>
<path fill="none" stroke="#910713" stroke-width="2" stroke-opacity="0.698039" d="M253,-490C294.93,-490 339.89,-491.2 382.53,-492.9"/>
<polygon fill="#910713" fill-opacity="0.698039" stroke="#910713" stroke-width="2" stroke-opacity="0.698039" points="382.22,-496.39 392.36,-493.3 382.51,-489.39 382.22,-496.39"/>
</g>
<!-- github.com/0magnet/audioprism&#45;go/cmd/a/fyne/commands -->
<g id="node8" class="node">
<title>github.com/0magnet/audioprism&#45;go/cmd/a/fyne/commands</title>
<g id="a_node8"><a xlink:href="https://pkg.go.dev/github.com/0magnet/audioprism-go/cmd/a/fyne/commands" xlink:title="github.com/0magnet/audioprism&#45;go/cmd/a/fyne/commands\l57 / 2.2KB\l" target="_graphviz">
<polygon fill="none" stroke="#2d0791" stroke-width="2" stroke-opacity="0.698039" points="738,-468 414,-468 414,-432 738,-432 738,-468"/>
<text xml:space="preserve" text-anchor="start" x="422" y="-453.25" font-family="Times,serif" font-size="10.00">github.com/0magnet/audioprism&#45;go/cmd/a/fyne/commands</text>
<text xml:space="preserve" text-anchor="start" x="422" y="-440.5" font-family="Times,serif" font-size="10.00">57 / 2.2KB</text>
</a>
</g>
</g>
<!-- github.com/0magnet/audioprism&#45;go&#45;&gt;github.com/0magnet/audioprism&#45;go/cmd/a/fyne/commands -->
<g id="edge2" class="edge">
<title>github.com/0magnet/audioprism&#45;go:e&#45;&gt;github.com/0magnet/audioprism&#45;go/cmd/a/fyne/commands</title>
<path fill="none" stroke="#2d0791" stroke-width="2" stroke-opacity="0.698039" d="M253,-490C288.21,-490 365.8,-480.46 435.99,-470.7"/>
<polygon fill="#2d0791" fill-opacity="0.698039" stroke="#2d0791" stroke-width="2" stroke-opacity="0.698039" points="436.13,-474.22 445.55,-469.37 435.16,-467.29 436.13,-474.22"/>
</g>
<!-- github.com/0magnet/audioprism&#45;go/cmd/a/tcell/commands -->
<g id="node10" class="node">
<title>github.com/0magnet/audioprism&#45;go/cmd/a/tcell/commands</title>
<g id="a_node10"><a xlink:href="https://pkg.go.dev/github.com/0magnet/audioprism-go/cmd/a/tcell/commands" xlink:title="github.com/0magnet/audioprism&#45;go/cmd/a/tcell/commands\l57 / 2.2KB\l" target="_graphviz">
<polygon fill="none" stroke="#919007" stroke-width="2" stroke-opacity="0.698039" points="738,-414 414,-414 414,-378 738,-378 738,-414"/>
<text xml:space="preserve" text-anchor="start" x="422" y="-399.25" font-family="Times,serif" font-size="10.00">github.com/0magnet/audioprism&#45;go/cmd/a/tcell/commands</text>
<text xml:space="preserve" text-anchor="start" x="422" y="-386.5" font-family="Times,serif" font-size="10.00">57 / 2.2KB</text>
</a>
</g>
</g>
<!-- github.com/0magnet/audioprism&#45;go&#45;&gt;github.com/0magnet/audioprism&#45;go/cmd/a/tcell/commands -->
<g id="edge3" class="edge">
<title>github.com/0magnet/audioprism&#45;go:e&#45;&gt;github.com/0magnet/audioprism&#45;go/cmd/a/tcell/commands</title>
<path fill="none" stroke="#919007" stroke-width="2" stroke-opacity="0.698039" d="M253,-490C323.19,-490 328.82,-443.33 396,-423 402.05,-421.17 408.25,-419.46 414.55,-417.86"/>
<polygon fill="#919007" fill-opacity="0.698039" stroke="#919007" stroke-width="2" stroke-opacity="0.698039" points="414.9,-421.38 423.81,-415.64 413.27,-414.57 414.9,-421.38"/>
</g>
<!-- github.com/0magnet/audioprism&#45;go/cmd/a/wasm/commands -->
<g id="node12" class="node">
<title>github.com/0magnet/audioprism&#45;go/cmd/a/wasm/commands</title>
<g id="a_node12"><a xlink:href="https://pkg.go.dev/github.com/0magnet/audioprism-go/cmd/a/wasm/commands" xlink:title="github.com/0magnet/audioprism&#45;go/cmd/a/wasm/commands\l611 / 19.1KB\l" target="_graphviz">
<polygon fill="none" stroke="#074191" stroke-width="2" stroke-opacity="0.698039" points="738,-360 414,-360 414,-324 738,-324 738,-360"/>
<text xml:space="preserve" text-anchor="start" x="422" y="-345.25" font-family="Times,serif" font-size="10.00">github.com/0magnet/audioprism&#45;go/cmd/a/wasm/commands</text>
<text xml:space="preserve" text-anchor="start" x="422" y="-332.5" font-family="Times,serif" font-size="10.00">611 / 19.1KB</text>
</a>
</g>
</g>
<!-- github.com/0magnet/audioprism&#45;go&#45;&gt;github.com/0magnet/audioprism&#45;go/cmd/a/wasm/commands -->
<g id="edge4" class="edge">
<title>github.com/0magnet/audioprism&#45;go:e&#45;&gt;github.com/0magnet/audioprism&#45;go/cmd/a/wasm/commands</title>
<path fill="none" stroke="#074191" stroke-width="2" stroke-opacity="0.698039" d="M253,-490C336.25,-490 320.43,-403.93 396,-369 398.77,-367.72 401.58,-366.5 404.44,-365.33"/>
<polygon fill="#074191" fill-opacity="0.698039" stroke="#074191" stroke-width="2" stroke-opacity="0.698039" points="405.42,-368.71 413.55,-361.91 402.96,-362.15 405.42,-368.71"/>
</g>
<!-- github.com/0magnet/audioprism&#45;go/cmd/png/commands -->
<g id="node15" class="node">
<title>github.com/0magnet/audioprism&#45;go/cmd/png/commands</title>
<g id="a_node15"><a xlink:href="https://pkg.go.dev/github.com/0magnet/audioprism-go/cmd/png/commands" xlink:title="github.com/0magnet/audioprism&#45;go/cmd/png/commands\l134 / 4.9KB\l" target="_graphviz">
<polygon fill="none" stroke="#916207" stroke-width="2" stroke-opacity="0.698039" points="738,-306 414,-306 414,-270 738,-270 738,-306"/>
<text xml:space="preserve" text-anchor="start" x="422" y="-291.25" font-family="Times,serif" font-size="10.00">github.com/0magnet/audioprism&#45;go/cmd/png/commands</text>
<text xml:space="preserve" text-anchor="start" x="422" y="-278.5" font-family="Times,serif" font-size="10.00">134 / 4.9KB</text>
</a>
</g>
</g>
<!-- github.com/0magnet/audioprism&#45;go&#45;&gt;github.com/0magnet/audioprism&#45;go/cmd/png/commands -->
<g id="edge5" class="edge">
<title>github.com/0magnet/audioprism&#45;go:e&#45;&gt;github.com/0magnet/audioprism&#45;go/cmd/png/commands</title>
<path fill="none" stroke="#916207" stroke-width="2" stroke-opacity="0.698039" d="M253,-490C272.65,-490 274.29,-477.08 288,-463 344.81,-404.66 326.37,-357.22 396,-315 397.89,-313.85 399.82,-312.75 401.77,-311.68"/>
<polygon fill="#916207" fill-opacity="0.698039" stroke="#916207" stroke-width="2" stroke-opacity="0.698039" points="403.11,-314.93 410.53,-307.37 400.01,-308.65 403.11,-314.93"/>
</g>
<!-- github.com/0magnet/audioprism&#45;go/cmd/xy/commands -->
<g id="node17" class="node">
<title>github.com/0magnet/audioprism&#45;go/cmd/xy/commands</title>
<g id="a_node17"><a xlink:href="https://pkg.go.dev/github.com/0magnet/audioprism-go/cmd/xy/commands" xlink:title="github.com/0magnet/audioprism&#45;go/cmd/xy/commands\l134 / 3.4KB\l" target="_graphviz">
<polygon fill="none" stroke="#440791" stroke-width="2" stroke-opacity="0.698039" points="738,-252 414,-252 414,-216 738,-216 738,-252"/>
<text xml:space="preserve" text-anchor="start" x="422" y="-237.25" font-family="Times,serif" font-size="10.00">github.com/0magnet/audioprism&#45;go/cmd/xy/commands</text>
<text xml:space="preserve" text-anchor="start" x="422" y="-224.5" font-family="Times,serif" font-size="10.00">134 / 3.4KB</text>
</a>
</g>
</g>
<!-- github.com/0magnet/audioprism&#45;go&#45;&gt;github.com/0magnet/audioprism&#45;go/cmd/xy/commands -->
<g id="edge6" class="edge">
<title>github.com/0magnet/audioprism&#45;go:e&#45;&gt;github.com/0magnet/audioprism&#45;go/cmd/xy/commands</title>
<path fill="none" stroke="#440791" stroke-width="2" stroke-opacity="0.698039" d="M253,-490C272.65,-490 275.31,-478 288,-463 353.77,-385.29 312.84,-319.72 396,-261 397.94,-259.63 399.92,-258.32 401.93,-257.07"/>
<polygon fill="#440791" fill-opacity="0.698039" stroke="#440791" stroke-width="2" stroke-opacity="0.698039" points="403.38,-260.27 410.4,-252.34 399.96,-254.16 403.38,-260.27"/>
</g>
<!-- github.com/0magnet/audioprism&#45;go/internal/buildinfo -->
<g id="node18" class="node">
<title>github.com/0magnet/audioprism&#45;go/internal/buildinfo</title>
<g id="a_node18"><a xlink:href="https://pkg.go.dev/github.com/0magnet/audioprism-go/internal/buildinfo" xlink:title="github.com/0magnet/audioprism&#45;go/internal/buildinfo\l169 / 5.0KB\l" target="_graphviz">
<polygon fill="none" stroke="#8d9107" stroke-width="2" stroke-opacity="0.698039" points="738,-576 414,-576 414,-540 738,-540 738,-576"/>
<text xml:space="preserve" text-anchor="start" x="422" y="-561.25" font-family="Times,serif" font-size="10.00">github.com/0magnet/audioprism&#45;go/internal/buildinfo</text>
<text xml:space="preserve" text-anchor="start" x="422" y="-548.5" font-family="Times,serif" font-size="10.00">169 / 5.0KB</text>
</a>
</g>
</g>
<!-- github.com/0magnet/audioprism&#45;go&#45;&gt;github.com/0magnet/audioprism&#45;go/internal/buildinfo -->
<g id="edge7" class="edge">
<title>github.com/0magnet/audioprism&#45;go:e&#45;&gt;github.com/0magnet/audioprism&#45;go/internal/buildinfo</title>
<path fill="none" stroke="#8d9107" stroke-width="2" stroke-opacity="0.698039" d="M253,-490C319.12,-490 331.4,-516.93 396,-531 405.18,-533 414.66,-534.9 424.24,-536.7"/>
<polygon fill="#8d9107" fill-opacity="0.698039" stroke="#8d9107" stroke-width="2" stroke-opacity="0.698039" points="423.43,-540.11 433.9,-538.46 424.69,-533.22 423.43,-540.11"/>
</g>
<!-- github.com/0magnet/audioprism&#45;go/internal/flags -->
<g id="node19" class="node">
<title>github.com/0magnet/audioprism&#45;go/internal/flags</title>
<g id="a_node19"><a xlink:href="https://pkg.go.dev/github.com/0magnet/audioprism-go/internal/flags" xlink:title="github.com/0magnet/audioprism&#45;go/internal/flags\l271 / 10.4KB\l" target="_graphviz">
<polygon fill="none" stroke="#670791" stroke-width="2" stroke-opacity="0.698039" points="720,-198 432,-198 432,-162 720,-162 720,-198"/>
<text xml:space="preserve" text-anchor="start" x="440" y="-183.25" font-family="Times,serif" font-size="10.00">github.com/0magnet/audioprism&#45;go/internal/flags</text>
<text xml:space="preserve" text-anchor="start" x="440" y="-170.5" font-family="Times,serif" font-size="10.00">271 / 10.4KB</text>
</a>
</g>
</g>
<!-- github.com/0magnet/audioprism&#45;go&#45;&gt;github.com/0magnet/audioprism&#45;go/internal/flags -->
<g id="edge8" class="edge">
<title>github.com/0magnet/audioprism&#45;go:e&#45;&gt;github.com/0magnet/audioprism&#45;go/internal/flags</title>
<path fill="none" stroke="#670791" stroke-width="2" stroke-opacity="0.698039" d="M253,-490C272.65,-490 276.01,-478.56 288,-463 363.37,-365.18 298.49,-282.78 396,-207 403.17,-201.43 411,-196.77 419.25,-192.89"/>
<polygon fill="#670791" fill-opacity="0.698039" stroke="#670791" stroke-width="2" stroke-opacity="0.698039" points="420.5,-196.16 428.38,-189.08 417.8,-189.71 420.5,-196.16"/>
</g>
<!-- github.com/0magnet/audioprism&#45;go/cmd/a/core -->
<g id="node2" class="node">
<title>github.com/0magnet/audioprism&#45;go/cmd/a/core</title>
<g id="a_node2"><a xlink:href="https://pkg.go.dev/github.com/0magnet/audioprism-go/cmd/a/core" xlink:title="github.com/0magnet/audioprism&#45;go/cmd/a/core\l15 / 351B\l" target="_graphviz">
<polygon fill="none" stroke="#419107" stroke-width="2" stroke-opacity="0.698039" points="288,-130 0,-130 0,-94 288,-94 288,-130"/>
<text xml:space="preserve" text-anchor="start" x="8" y="-115.25" font-family="Times,serif" font-size="10.00">github.com/0magnet/audioprism&#45;go/cmd/a/core</text>
<text xml:space="preserve" text-anchor="start" x="8" y="-102.5" font-family="Times,serif" font-size="10.00">15 / 351B</text>
</a>
</g>
</g>
<!-- github.com/0magnet/audioprism&#45;go/cmd/a/core/commands -->
<g id="node3" class="node">
<title>github.com/0magnet/audioprism&#45;go/cmd/a/core/commands</title>
<g id="a_node3"><a xlink:href="https://pkg.go.dev/github.com/0magnet/audioprism-go/cmd/a/core/commands" xlink:title="github.com/0magnet/audioprism&#45;go/cmd/a/core/commands\l57 / 2.2KB\l" target="_graphviz">
<polygon fill="none" stroke="#679107" stroke-width="2" stroke-opacity="0.698039" points="738,-144 414,-144 414,-108 738,-108 738,-144"/>
<text xml:space="preserve" text-anchor="start" x="422" y="-129.25" font-family="Times,serif" font-size="10.00">github.com/0magnet/audioprism&#45;go/cmd/a/core/commands</text>
<text xml:space="preserve" text-anchor="start" x="422" y="-116.5" font-family="Times,serif" font-size="10.00">57 / 2.2KB</text>
</a>
</g>
</g>
<!-- github.com/0magnet/audioprism&#45;go/cmd/a/core&#45;&gt;github.com/0magnet/audioprism&#45;go/cmd/a/core/commands -->
<g id="edge9" class="edge">
<title>github.com/0magnet/audioprism&#45;go/cmd/a/core:e&#45;&gt;github.com/0magnet/audioprism&#45;go/cmd/a/core/commands</title>
<path fill="none" stroke="#679107" stroke-width="2" stroke-opacity="0.698039" d="M288,-112C324.26,-112 363.06,-113.13 400.04,-114.74"/>
<polygon fill="#679107" fill-opacity="0.698039" stroke="#679107" stroke-width="2" stroke-opacity="0.698039" points="399.87,-118.24 410.01,-115.2 400.18,-111.25 399.87,-118.24"/>
</g>
<!-- github.com/0magnet/audioprism&#45;go/cmd/a/core&#45;&gt;github.com/0magnet/audioprism&#45;go/internal/flags -->
<g id="edge10" class="edge">
<title>github.com/0magnet/audioprism&#45;go/cmd/a/core:e&#45;&gt;github.com/0magnet/audioprism&#45;go/internal/flags</title>
<path fill="none" stroke="#670791" stroke-width="2" stroke-opacity="0.698039" d="M288,-112C339.34,-112 346.33,-139.99 396,-153 403.39,-154.94 411,-156.75 418.7,-158.44"/>
<polygon fill="#670791" fill-opacity="0.698039" stroke="#670791" stroke-width="2" stroke-opacity="0.698039" points="417.84,-161.84 428.35,-160.47 419.29,-154.99 417.84,-161.84"/>
</g>
<!-- github.com/0magnet/audioprism&#45;go/pkg/spectrogram -->
<g id="node21" class="node">
<title>github.com/0magnet/audioprism&#45;go/pkg/spectrogram</title>
<g id="a_node21"><a xlink:href="https://pkg.go.dev/github.com/0magnet/audioprism-go/pkg/spectrogram" xlink:title="github.com/0magnet/audioprism&#45;go/pkg/spectrogram\l581 / 17.4KB\l" target="_graphviz">
<polygon fill="none" stroke="#071791" stroke-width="2" stroke-opacity="0.698039" points="1620,-329 1296,-329 1296,-293 1620,-293 1620,-329"/>
<text xml:space="preserve" text-anchor="start" x="1304" y="-314.25" font-family="Times,serif" font-size="10.00">github.com/0magnet/audioprism&#45;go/pkg/spectrogram</text>
<text xml:space="preserve" text-anchor="start" x="1304" y="-301.5" font-family="Times,serif" font-size="10.00">581 / 17.4KB</text>
</a>
</g>
</g>
<!-- github.com/0magnet/audioprism&#45;go/cmd/a/core/commands&#45;&gt;github.com/0magnet/audioprism&#45;go/pkg/spectrogram -->
<g id="edge11" class="edge">
<title>github.com/0magnet/audioprism&#45;go/cmd/a/core/commands:e&#45;&gt;github.com/0magnet/audioprism&#45;go/pkg/spectrogram</title>
<path fill="none" stroke="#071791" stroke-width="2" stroke-opacity="0.698039" d="M739,-126C796.46,-126 807.86,-146.76 864,-159 1006.78,-190.12 1046.66,-177.86 1188,-215 1262.52,-234.58 1345.69,-265.76 1399.55,-287.25"/>
<polygon fill="#071791" fill-opacity="0.698039" stroke="#071791" stroke-width="2" stroke-opacity="0.698039" points="1398.19,-290.47 1408.77,-290.95 1400.8,-283.98 1398.19,-290.47"/>
</g>
<!-- github.com/0magnet/audioprism&#45;go/pkg/ui/core -->
<g id="node22" class="node">
<title>github.com/0magnet/audioprism&#45;go/pkg/ui/core</title>
<g id="a_node22"><a xlink:href="https://pkg.go.dev/github.com/0magnet/audioprism-go/pkg/ui/core" xlink:title="github.com/0magnet/audioprism&#45;go/pkg/ui/core\l189 / 5.6KB\l" target="_graphviz">
<polygon fill="none" stroke="#910727" stroke-width="2" stroke-opacity="0.698039" points="1170,-150 882,-150 882,-114 1170,-114 1170,-150"/>
<text xml:space="preserve" text-anchor="start" x="890" y="-135.25" font-family="Times,serif" font-size="10.00">github.com/0magnet/audioprism&#45;go/pkg/ui/core</text>
<text xml:space="preserve" text-anchor="start" x="890" y="-122.5" font-family="Times,serif" font-size="10.00">189 / 5.6KB</text>
</a>
</g>
</g>
<!-- github.com/0magnet/audioprism&#45;go/cmd/a/core/commands&#45;&gt;github.com/0magnet/audioprism&#45;go/pkg/ui/core -->
<g id="edge12" class="edge">
<title>github.com/0magnet/audioprism&#45;go/cmd/a/core/commands:e&#45;&gt;github.com/0magnet/audioprism&#45;go/pkg/ui/core</title>
<path fill="none" stroke="#910727" stroke-width="2" stroke-opacity="0.698039" d="M739,-126C780.97,-126 826.4,-126.65 868.42,-127.53"/>
<polygon fill="#910727" fill-opacity="0.698039" stroke="#910727" stroke-width="2" stroke-opacity="0.698039" points="868.25,-131.03 878.32,-127.74 868.4,-124.03 868.25,-131.03"/>
</g>
<!-- github.com/0magnet/audioprism&#45;go/cmd/a/coreweb -->
<g id="node4" class="node">
<title>github.com/0magnet/audioprism&#45;go/cmd/a/coreweb</title>
<g id="a_node4"><a xlink:href="https://pkg.go.dev/github.com/0magnet/audioprism-go/cmd/a/coreweb" xlink:title="github.com/0magnet/audioprism&#45;go/cmd/a/coreweb\l15 / 360B\l" target="_graphviz">
<polygon fill="none" stroke="#07916b" stroke-width="2" stroke-opacity="0.698039" points="288,-454 0,-454 0,-418 288,-418 288,-454"/>
<text xml:space="preserve" text-anchor="start" x="8" y="-439.25" font-family="Times,serif" font-size="10.00">github.com/0magnet/audioprism&#45;go/cmd/a/coreweb</text>
<text xml:space="preserve" text-anchor="start" x="8" y="-426.5" font-family="Times,serif" font-size="10.00">15 / 360B</text>
</a>
</g>
</g>
<!-- github.com/0magnet/audioprism&#45;go/cmd/a/coreweb&#45;&gt;github.com/0magnet/audioprism&#45;go/cmd/a/coreweb/commands -->
<g id="edge13" class="edge">
<title>github.com/0magnet/audioprism&#45;go/cmd/a/coreweb:e&#45;&gt;github.com/0magnet/audioprism&#45;go/cmd/a/coreweb/commands</title>
<path fill="none" stroke="#910713" stroke-width="2" stroke-opacity="0.698039" d="M288,-436C339.34,-436 346.33,-463.99 396,-477 403.21,-478.89 410.61,-480.66 418.12,-482.32"/>
<polygon fill="#910713" fill-opacity="0.698039" stroke="#910713" stroke-width="2" stroke-opacity="0.698039" points="417.36,-485.73 427.87,-484.37 418.81,-478.88 417.36,-485.73"/>
</g>
<!-- github.com/0magnet/audioprism&#45;go/cmd/a/coreweb&#45;&gt;github.com/0magnet/audioprism&#45;go/internal/flags -->
<g id="edge14" class="edge">
<title>github.com/0magnet/audioprism&#45;go/cmd/a/coreweb:e&#45;&gt;github.com/0magnet/audioprism&#45;go/internal/flags</title>
<path fill="none" stroke="#670791" stroke-width="2" stroke-opacity="0.698039" d="M288,-436C400.53,-436 305.74,-274.19 396,-207 403.2,-201.64 411.01,-197.14 419.22,-193.38"/>
<polygon fill="#670791" fill-opacity="0.698039" stroke="#670791" stroke-width="2" stroke-opacity="0.698039" points="420.34,-196.71 428.27,-189.68 417.69,-190.23 420.34,-196.71"/>
</g>
<!-- github.com/0magnet/audioprism&#45;go/cmd/a/coreweb/commands/ui -->
<g id="node6" class="node">
<title>github.com/0magnet/audioprism&#45;go/cmd/a/coreweb/commands/ui</title>
<g id="a_node6"><a xlink:href="https://pkg.go.dev/github.com/0magnet/audioprism-go/cmd/a/coreweb/commands/ui" xlink:title="github.com/0magnet/audioprism&#45;go/cmd/a/coreweb/commands/ui\l11 / 224B\l" target="_graphviz">
<polygon fill="none" stroke="#8b9107" stroke-width="2" stroke-opacity="0.698039" points="756,-90 396,-90 396,-54 756,-54 756,-90"/>
<text xml:space="preserve" text-anchor="start" x="404" y="-75.25" font-family="Times,serif" font-size="10.00">github.com/0magnet/audioprism&#45;go/cmd/a/coreweb/commands/ui</text>
<text xml:space="preserve" text-anchor="start" x="404" y="-62.5" font-family="Times,serif" font-size="10.00">11 / 224B</text>
</a>
</g>
</g>
<!-- github.com/0magnet/audioprism&#45;go/cmd/a/coreweb/commands/ui&#45;&gt;github.com/0magnet/audioprism&#45;go/pkg/ui/core -->
<g id="edge15" class="edge">
<title>github.com/0magnet/audioprism&#45;go/cmd/a/coreweb/commands/ui:e&#45;&gt;github.com/0magnet/audioprism&#45;go/pkg/ui/core</title>
<path fill="none" stroke="#910727" stroke-width="2" stroke-opacity="0.698039" d="M756,-72C806.19,-72 815.15,-93.49 864,-105 872.16,-106.92 880.57,-108.76 889.09,-110.51"/>
<polygon fill="#910727" fill-opacity="0.698039" stroke="#910727" stroke-width="2" stroke-opacity="0.698039" points="888.15,-113.89 898.64,-112.41 889.51,-107.02 888.15,-113.89"/>
</g>
<!-- github.com/0magnet/audioprism&#45;go/cmd/a/fyne -->
<g id="node7" class="node">
<title>github.com/0magnet/audioprism&#45;go/cmd/a/fyne</title>
<g id="a_node7"><a xlink:href="https://pkg.go.dev/github.com/0magnet/audioprism-go/cmd/a/fyne" xlink:title="github.com/0magnet/audioprism&#45;go/cmd/a/fyne\l15 / 351B\l" target="_graphviz">
<polygon fill="none" stroke="#6d0791" stroke-width="2" stroke-opacity="0.698039" points="288,-400 0,-400 0,-364 288,-364 288,-400"/>
<text xml:space="preserve" text-anchor="start" x="8" y="-385.25" font-family="Times,serif" font-size="10.00">github.com/0magnet/audioprism&#45;go/cmd/a/fyne</text>
<text xml:space="preserve" text-anchor="start" x="8" y="-372.5" font-family="Times,serif" font-size="10.00">15 / 351B</text>
</a>
</g>
</g>
<!-- github.com/0magnet/audioprism&#45;go/cmd/a/fyne&#45;&gt;github.com/0magnet/audioprism&#45;go/cmd/a/fyne/commands -->
<g id="edge16" class="edge">
<title>github.com/0magnet/audioprism&#45;go/cmd/a/fyne:e&#45;&gt;github.com/0magnet/audioprism&#45;go/cmd/a/fyne/commands</title>
<path fill="none" stroke="#2d0791" stroke-width="2" stroke-opacity="0.698039" d="M288,-382C339.34,-382 346.33,-409.99 396,-423 403.21,-424.89 410.61,-426.66 418.12,-428.32"/>
<polygon fill="#2d0791" fill-opacity="0.698039" stroke="#2d0791" stroke-width="2" stroke-opacity="0.698039" points="417.36,-431.73 427.87,-430.37 418.81,-424.88 417.36,-431.73"/>
</g>
<!-- github.com/0magnet/audioprism&#45;go/cmd/a/fyne&#45;&gt;github.com/0magnet/audioprism&#45;go/internal/flags -->
<g id="edge17" class="edge">
<title>github.com/0magnet/audioprism&#45;go/cmd/a/fyne:e&#45;&gt;github.com/0magnet/audioprism&#45;go/internal/flags</title>
<path fill="none" stroke="#670791" stroke-width="2" stroke-opacity="0.698039" d="M288,-382C379.4,-382 319.74,-257.38 396,-207 403.22,-202.23 410.97,-198.17 419.03,-194.73"/>
<polygon fill="#670791" fill-opacity="0.698039" stroke="#670791" stroke-width="2" stroke-opacity="0.698039" points="420.14,-198.05 428.23,-191.2 417.64,-191.51 420.14,-198.05"/>
</g>
<!-- github.com/0magnet/audioprism&#45;go/cmd/a/fyne/commands&#45;&gt;github.com/0magnet/audioprism&#45;go/pkg/spectrogram -->
<g id="edge18" class="edge">
<title>github.com/0magnet/audioprism&#45;go/cmd/a/fyne/commands:e&#45;&gt;github.com/0magnet/audioprism&#45;go/pkg/spectrogram</title>
<path fill="none" stroke="#071791" stroke-width="2" stroke-opacity="0.698039" d="M739,-450C938.56,-450 994.3,-500.99 1188,-453 1278.31,-430.63 1371.72,-371.8 1421.19,-337.28"/>
<polygon fill="#071791" fill-opacity="0.698039" stroke="#071791" stroke-width="2" stroke-opacity="0.698039" points="1423.02,-340.27 1429.17,-331.64 1418.98,-334.56 1423.02,-340.27"/>
</g>
<!-- github.com/0magnet/audioprism&#45;go/pkg/ui/fyne -->
<g id="node23" class="node">
<title>github.com/0magnet/audioprism&#45;go/pkg/ui/fyne</title>
<g id="a_node23"><a xlink:href="https://pkg.go.dev/github.com/0magnet/audioprism-go/pkg/ui/fyne" xlink:title="github.com/0magnet/audioprism&#45;go/pkg/ui/fyne\l303 / 8.5KB\l" target="_graphviz">
<polygon fill="none" stroke="#910748" stroke-width="2" stroke-opacity="0.698039" points="1170,-444 882,-444 882,-408 1170,-408 1170,-444"/>
<text xml:space="preserve" text-anchor="start" x="890" y="-429.25" font-family="Times,serif" font-size="10.00">github.com/0magnet/audioprism&#45;go/pkg/ui/fyne</text>
<text xml:space="preserve" text-anchor="start" x="890" y="-416.5" font-family="Times,serif" font-size="10.00">303 / 8.5KB</text>
</a>
</g>
</g>
<!-- github.com/0magnet/audioprism&#45;go/cmd/a/fyne/commands&#45;&gt;github.com/0magnet/audioprism&#45;go/pkg/ui/fyne -->
<g id="edge19" class="edge">
<title>github.com/0magnet/audioprism&#45;go/cmd/a/fyne/commands:e&#45;&gt;github.com/0magnet/audioprism&#45;go/pkg/ui/fyne</title>
<path fill="none" stroke="#910748" stroke-width="2" stroke-opacity="0.698039" d="M739,-450C781,-450 826.34,-447.4 868.27,-443.91"/>
<polygon fill="#910748" fill-opacity="0.698039" stroke="#910748" stroke-width="2" stroke-opacity="0.698039" points="868.49,-447.4 878.15,-443.06 867.89,-440.43 868.49,-447.4"/>
</g>
<!-- github.com/0magnet/audioprism&#45;go/cmd/a/tcell -->
<g id="node9" class="node">
<title>github.com/0magnet/audioprism&#45;go/cmd/a/tcell</title>
<g id="a_node9"><a xlink:href="https://pkg.go.dev/github.com/0magnet/audioprism-go/cmd/a/tcell" xlink:title="github.com/0magnet/audioprism&#45;go/cmd/a/tcell\l15 / 354B\l" target="_graphviz">
<polygon fill="none" stroke="#077191" stroke-width="2" stroke-opacity="0.698039" points="288,-346 0,-346 0,-310 288,-310 288,-346"/>
<text xml:space="preserve" text-anchor="start" x="8" y="-331.25" font-family="Times,serif" font-size="10.00">github.com/0magnet/audioprism&#45;go/cmd/a/tcell</text>
<text xml:space="preserve" text-anchor="start" x="8" y="-318.5" font-family="Times,serif" font-size="10.00">15 / 354B</text>
</a>
</g>
</g>
<!-- github.com/0magnet/audioprism&#45;go/cmd/a/tcell&#45;&gt;github.com/0magnet/audioprism&#45;go/cmd/a/tcell/commands -->
<g id="edge20" class="edge">
<title>github.com/0magnet/audioprism&#45;go/cmd/a/tcell:e&#45;&gt;github.com/0magnet/audioprism&#45;go/cmd/a/tcell/commands</title>
<path fill="none" stroke="#919007" stroke-width="2" stroke-opacity="0.698039" d="M288,-328C339.34,-328 346.33,-355.99 396,-369 403.21,-370.89 410.61,-372.66 418.12,-374.32"/>
<polygon fill="#919007" fill-opacity="0.698039" stroke="#919007" stroke-width="2" stroke-opacity="0.698039" points="417.36,-377.73 427.87,-376.37 418.81,-370.88 417.36,-377.73"/>
</g>
<!-- github.com/0magnet/audioprism&#45;go/cmd/a/tcell&#45;&gt;github.com/0magnet/audioprism&#45;go/internal/flags -->
<g id="edge21" class="edge">
<title>github.com/0magnet/audioprism&#45;go/cmd/a/tcell:e&#45;&gt;github.com/0magnet/audioprism&#45;go/internal/flags</title>
<path fill="none" stroke="#670791" stroke-width="2" stroke-opacity="0.698039" d="M288,-328C360.08,-328 332.6,-241.3 396,-207 403.34,-203.03 411.09,-199.59 419.07,-196.62"/>
<polygon fill="#670791" fill-opacity="0.698039" stroke="#670791" stroke-width="2" stroke-opacity="0.698039" points="420.14,-199.95 428.49,-193.42 417.9,-193.32 420.14,-199.95"/>
</g>
<!-- github.com/0magnet/audioprism&#45;go/cmd/a/tcell/commands&#45;&gt;github.com/0magnet/audioprism&#45;go/pkg/spectrogram -->
<g id="edge22" class="edge">
<title>github.com/0magnet/audioprism&#45;go/cmd/a/tcell/commands:e&#45;&gt;github.com/0magnet/audioprism&#45;go/pkg/spectrogram</title>
<path fill="none" stroke="#071791" stroke-width="2" stroke-opacity="0.698039" d="M739,-396C939.16,-396 989.55,-387.1 1188,-361 1243.68,-353.68 1305.31,-342.45 1355.51,-332.49"/>
<polygon fill="#071791" fill-opacity="0.698039" stroke="#071791" stroke-width="2" stroke-opacity="0.698039" points="1355.93,-335.98 1365.05,-330.59 1354.56,-329.11 1355.93,-335.98"/>
</g>
<!-- github.com/0magnet/audioprism&#45;go/pkg/ui/tcell -->
<g id="node24" class="node">
<title>github.com/0magnet/audioprism&#45;go/pkg/ui/tcell</title>
<g id="a_node24"><a xlink:href="https://pkg.go.dev/github.com/0magnet/audioprism-go/pkg/ui/tcell" xlink:title="github.com/0magnet/audioprism&#45;go/pkg/ui/tcell\l250 / 7.0KB\l" target="_graphviz">
<polygon fill="none" stroke="#109107" stroke-width="2" stroke-opacity="0.698039" points="1170,-352 882,-352 882,-316 1170,-316 1170,-352"/>
<text xml:space="preserve" text-anchor="start" x="890" y="-337.25" font-family="Times,serif" font-size="10.00">github.com/0magnet/audioprism&#45;go/pkg/ui/tcell</text>
<text xml:space="preserve" text-anchor="start" x="890" y="-324.5" font-family="Times,serif" font-size="10.00">250 / 7.0KB</text>
</a>
</g>
</g>
<!-- github.com/0magnet/audioprism&#45;go/cmd/a/tcell/commands&#45;&gt;github.com/0magnet/audioprism&#45;go/pkg/ui/tcell -->
<g id="edge23" class="edge">
<title>github.com/0magnet/audioprism&#45;go/cmd/a/tcell/commands:e&#45;&gt;github.com/0magnet/audioprism&#45;go/pkg/ui/tcell</title>
<path fill="none" stroke="#109107" stroke-width="2" stroke-opacity="0.698039" d="M739,-396C796.13,-396 808.19,-378.24 864,-366 880.08,-362.47 897.11,-358.91 913.83,-355.5"/>
<polygon fill="#109107" fill-opacity="0.698039" stroke="#109107" stroke-width="2" stroke-opacity="0.698039" points="914.46,-358.95 923.57,-353.53 913.07,-352.08 914.46,-358.95"/>
</g>
<!-- github.com/0magnet/audioprism&#45;go/cmd/a/wasm -->
<g id="node11" class="node">
<title>github.com/0magnet/audioprism&#45;go/cmd/a/wasm</title>
<g id="a_node11"><a xlink:href="https://pkg.go.dev/github.com/0magnet/audioprism-go/cmd/a/wasm" xlink:title="github.com/0magnet/audioprism&#45;go/cmd/a/wasm\l15 / 351B\l" target="_graphviz">
<polygon fill="none" stroke="#912e07" stroke-width="2" stroke-opacity="0.698039" points="288,-292 0,-292 0,-256 288,-256 288,-292"/>
<text xml:space="preserve" text-anchor="start" x="8" y="-277.25" font-family="Times,serif" font-size="10.00">github.com/0magnet/audioprism&#45;go/cmd/a/wasm</text>
<text xml:space="preserve" text-anchor="start" x="8" y="-264.5" font-family="Times,serif" font-size="10.00">15 / 351B</text>
</a>
</g>
</g>
<!-- github.com/0magnet/audioprism&#45;go/cmd/a/wasm&#45;&gt;github.com/0magnet/audioprism&#45;go/cmd/a/wasm/commands -->
<g id="edge24" class="edge">
<title>github.com/0magnet/audioprism&#45;go/cmd/a/wasm:e&#45;&gt;github.com/0magnet/audioprism&#45;go/cmd/a/wasm/commands</title>
<path fill="none" stroke="#074191" stroke-width="2" stroke-opacity="0.698039" d="M288,-274C339.34,-274 346.33,-301.99 396,-315 403.21,-316.89 410.61,-318.66 418.12,-320.32"/>
<polygon fill="#074191" fill-opacity="0.698039" stroke="#074191" stroke-width="2" stroke-opacity="0.698039" points="417.36,-323.73 427.87,-322.37 418.81,-316.88 417.36,-323.73"/>
</g>
<!-- github.com/0magnet/audioprism&#45;go/cmd/a/wasm&#45;&gt;github.com/0magnet/audioprism&#45;go/internal/flags -->
<g id="edge25" class="edge">
<title>github.com/0magnet/audioprism&#45;go/cmd/a/wasm:e&#45;&gt;github.com/0magnet/audioprism&#45;go/internal/flags</title>
<path fill="none" stroke="#670791" stroke-width="2" stroke-opacity="0.698039" d="M288,-274C344.49,-274 342.99,-226.5 396,-207 403.27,-204.33 410.8,-201.92 418.46,-199.75"/>
<polygon fill="#670791" fill-opacity="0.698039" stroke="#670791" stroke-width="2" stroke-opacity="0.698039" points="419.34,-203.13 428.12,-197.2 417.56,-196.37 419.34,-203.13"/>
</g>
<!-- github.com/0magnet/audioprism&#45;go/cmd/a/wasm/wasm -->
<g id="node13" class="node">
<title>github.com/0magnet/audioprism&#45;go/cmd/a/wasm/wasm</title>
<g id="a_node13"><a xlink:href="https://pkg.go.dev/github.com/0magnet/audioprism-go/cmd/a/wasm/wasm" xlink:title="github.com/0magnet/audioprism&#45;go/cmd/a/wasm/wasm\l950 / 32.8KB\l" target="_graphviz">
<polygon fill="none" stroke="#169107" stroke-width="2" stroke-opacity="0.698039" points="1188,-96 864,-96 864,-60 1188,-60 1188,-96"/>
<text xml:space="preserve" text-anchor="start" x="872" y="-81.25" font-family="Times,serif" font-size="10.00">github.com/0magnet/audioprism&#45;go/cmd/a/wasm/wasm</text>
<text xml:space="preserve" text-anchor="start" x="872" y="-68.5" font-family="Times,serif" font-size="10.00">950 / 32.8KB</text>
</a>
</g>
</g>
<!-- github.com/0magnet/audioprism&#45;go/cmd/a/wasm/wasm&#45;&gt;github.com/0magnet/audioprism&#45;go/pkg/spectrogram -->
<g id="edge26" class="edge">
<title>github.com/0magnet/audioprism&#45;go/cmd/a/wasm/wasm:e&#45;&gt;github.com/0magnet/audioprism&#45;go/pkg/spectrogram</title>
<path fill="none" stroke="#071791" stroke-width="2" stroke-opacity="0.698039" d="M1188,-78C1310.76,-78 1405.01,-218.36 1441.05,-281.2"/>
<polygon fill="#071791" fill-opacity="0.698039" stroke="#071791" stroke-width="2" stroke-opacity="0.698039" points="1437.86,-282.67 1445.81,-289.69 1443.97,-279.25 1437.86,-282.67"/>
</g>
<!-- github.com/0magnet/audioprism&#45;go/pkg/wgl -->
<g id="node26" class="node">
<title>github.com/0magnet/audioprism&#45;go/pkg/wgl</title>
<g id="a_node26"><a xlink:href="https://pkg.go.dev/github.com/0magnet/audioprism-go/pkg/wgl" xlink:title="github.com/0magnet/audioprism&#45;go/pkg/wgl\l186 / 6.3KB\l" target="_graphviz">
<polygon fill="none" stroke="#078891" stroke-width="2" stroke-opacity="0.698039" points="1584,-96 1332,-96 1332,-60 1584,-60 1584,-96"/>
<text xml:space="preserve" text-anchor="start" x="1340" y="-81.25" font-family="Times,serif" font-size="10.00">github.com/0magnet/audioprism&#45;go/pkg/wgl</text>
<text xml:space="preserve" text-anchor="start" x="1340" y="-68.5" font-family="Times,serif" font-size="10.00">186 / 6.3KB</text>
</a>
</g>
</g>
<!-- github.com/0magnet/audioprism&#45;go/cmd/a/wasm/wasm&#45;&gt;github.com/0magnet/audioprism&#45;go/pkg/wgl -->
<g id="edge27" class="edge">
<title>github.com/0magnet/audioprism&#45;go/cmd/a/wasm/wasm:e&#45;&gt;github.com/0magnet/audioprism&#45;go/pkg/wgl</title>
<path fill="none" stroke="#078891" stroke-width="2" stroke-opacity="0.698039" d="M1188,-78C1230.32,-78 1276.39,-78 1318.25,-78"/>
<polygon fill="#078891" fill-opacity="0.698039" stroke="#078891" stroke-width="2" stroke-opacity="0.698039" points="1318.07,-81.5 1328.07,-78 1318.07,-74.5 1318.07,-81.5"/>
</g>
<!-- github.com/0magnet/audioprism&#45;go/cmd/png -->
<g id="node14" class="node">
<title>github.com/0magnet/audioprism&#45;go/cmd/png</title>
<g id="a_node14"><a xlink:href="https://pkg.go.dev/github.com/0magnet/audioprism-go/cmd/png" xlink:title="github.com/0magnet/audioprism&#45;go/cmd/png\l14 / 303B\l" target="_graphviz">
<polygon fill="none" stroke="#91071a" stroke-width="2" stroke-opacity="0.698039" points="270,-238 18,-238 18,-202 270,-202 270,-238"/>
<text xml:space="preserve" text-anchor="start" x="26" y="-223.25" font-family="Times,serif" font-size="10.00">github.com/0magnet/audioprism&#45;go/cmd/png</text>
<text xml:space="preserve" text-anchor="start" x="26" y="-210.5" font-family="Times,serif" font-size="10.00">14 / 303B</text>
</a>
</g>
</g>
<!-- github.com/0magnet/audioprism&#45;go/cmd/png&#45;&gt;github.com/0magnet/audioprism&#45;go/cmd/png/commands -->
<g id="edge28" class="edge">
<title>github.com/0magnet/audioprism&#45;go/cmd/png:e&#45;&gt;github.com/0magnet/audioprism&#45;go/cmd/png/commands</title>
<path fill="none" stroke="#916207" stroke-width="2" stroke-opacity="0.698039" d="M271,-220C329.47,-220 339.12,-247.48 396,-261 404.32,-262.98 412.89,-264.84 421.57,-266.59"/>
<polygon fill="#916207" fill-opacity="0.698039" stroke="#916207" stroke-width="2" stroke-opacity="0.698039" points="420.89,-270.02 431.38,-268.49 422.23,-263.15 420.89,-270.02"/>
</g>
<!-- github.com/0magnet/audioprism&#45;go/cmd/png&#45;&gt;github.com/0magnet/audioprism&#45;go/internal/flags -->
<g id="edge29" class="edge">
<title>github.com/0magnet/audioprism&#45;go/cmd/png:e&#45;&gt;github.com/0magnet/audioprism&#45;go/internal/flags</title>
<path fill="none" stroke="#670791" stroke-width="2" stroke-opacity="0.698039" d="M271,-220C287.63,-220 360.5,-210.46 430.72,-200.7"/>
<polygon fill="#670791" fill-opacity="0.698039" stroke="#670791" stroke-width="2" stroke-opacity="0.698039" points="430.91,-204.21 440.33,-199.36 429.94,-197.28 430.91,-204.21"/>
</g>
<!-- github.com/0magnet/audioprism&#45;go/cmd/png/commands&#45;&gt;github.com/0magnet/audioprism&#45;go/pkg/spectrogram -->
<g id="edge30" class="edge">
<title>github.com/0magnet/audioprism&#45;go/cmd/png/commands:e&#45;&gt;github.com/0magnet/audioprism&#45;go/pkg/spectrogram</title>
<path fill="none" stroke="#071791" stroke-width="2" stroke-opacity="0.698039" d="M739,-288C924.53,-288 1136.89,-295.77 1282.24,-302.27"/>
<polygon fill="#071791" fill-opacity="0.698039" stroke="#071791" stroke-width="2" stroke-opacity="0.698039" points="1282.05,-305.77 1292.2,-302.72 1282.36,-298.77 1282.05,-305.77"/>
</g>
<!-- github.com/0magnet/audioprism&#45;go/pkg/wav -->
<g id="node25" class="node">
<title>github.com/0magnet/audioprism&#45;go/pkg/wav</title>
<g id="a_node25"><a xlink:href="https://pkg.go.dev/github.com/0magnet/audioprism-go/pkg/wav" xlink:title="github.com/0magnet/audioprism&#45;go/pkg/wav\l159 / 5.3KB\l" target="_graphviz">
<polygon fill="none" stroke="#079171" stroke-width="2" stroke-opacity="0.698039" points="1152,-260 900,-260 900,-224 1152,-224 1152,-260"/>
<text xml:space="preserve" text-anchor="start" x="908" y="-245.25" font-family="Times,serif" font-size="10.00">github.com/0magnet/audioprism&#45;go/pkg/wav</text>
<text xml:space="preserve" text-anchor="start" x="908" y="-232.5" font-family="Times,serif" font-size="10.00">159 / 5.3KB</text>
</a>
</g>
</g>
<!-- github.com/0magnet/audioprism&#45;go/cmd/png/commands&#45;&gt;github.com/0magnet/audioprism&#45;go/pkg/wav -->
<g id="edge31" class="edge">
<title>github.com/0magnet/audioprism&#45;go/cmd/png/commands:e&#45;&gt;github.com/0magnet/audioprism&#45;go/pkg/wav</title>
<path fill="none" stroke="#079171" stroke-width="2" stroke-opacity="0.698039" d="M739,-288C772.78,-288 849.87,-275.33 915.51,-263.29"/>
<polygon fill="#079171" fill-opacity="0.698039" stroke="#079171" stroke-width="2" stroke-opacity="0.698039" points="915.87,-266.78 925.06,-261.53 914.59,-259.9 915.87,-266.78"/>
</g>
<!-- github.com/0magnet/audioprism&#45;go/cmd/xy -->
<g id="node16" class="node">
<title>github.com/0magnet/audioprism&#45;go/cmd/xy</title>
<g id="a_node16"><a xlink:href="https://pkg.go.dev/github.com/0magnet/audioprism-go/cmd/xy" xlink:title="github.com/0magnet/audioprism&#45;go/cmd/xy\l15 / 341B\l" target="_graphviz">
<polygon fill="none" stroke="#91072d" stroke-width="2" stroke-opacity="0.698039" points="270,-184 18,-184 18,-148 270,-148 270,-184"/>
<text xml:space="preserve" text-anchor="start" x="26" y="-169.25" font-family="Times,serif" font-size="10.00">github.com/0magnet/audioprism&#45;go/cmd/xy</text>
<text xml:space="preserve" text-anchor="start" x="26" y="-156.5" font-family="Times,serif" font-size="10.00">15 / 341B</text>
</a>
</g>
</g>
<!-- github.com/0magnet/audioprism&#45;go/cmd/xy&#45;&gt;github.com/0magnet/audioprism&#45;go/cmd/xy/commands -->
<g id="edge32" class="edge">
<title>github.com/0magnet/audioprism&#45;go/cmd/xy:e&#45;&gt;github.com/0magnet/audioprism&#45;go/cmd/xy/commands</title>
<path fill="none" stroke="#440791" stroke-width="2" stroke-opacity="0.698039" d="M271,-166C329.47,-166 339.12,-193.48 396,-207 404.32,-208.98 412.89,-210.84 421.57,-212.59"/>
<polygon fill="#440791" fill-opacity="0.698039" stroke="#440791" stroke-width="2" stroke-opacity="0.698039" points="420.89,-216.02 431.38,-214.49 422.23,-209.15 420.89,-216.02"/>
</g>
<!-- github.com/0magnet/audioprism&#45;go/cmd/xy&#45;&gt;github.com/0magnet/audioprism&#45;go/internal/flags -->
<g id="edge33" class="edge">
<title>github.com/0magnet/audioprism&#45;go/cmd/xy:e&#45;&gt;github.com/0magnet/audioprism&#45;go/internal/flags</title>
<path fill="none" stroke="#670791" stroke-width="2" stroke-opacity="0.698039" d="M271,-166C318.91,-166 371.03,-167.76 418.36,-170.03"/>
<polygon fill="#670791" fill-opacity="0.698039" stroke="#670791" stroke-width="2" stroke-opacity="0.698039" points="418.06,-173.52 428.22,-170.51 418.41,-166.52 418.06,-173.52"/>
</g>
<!-- github.com/0magnet/audioprism&#45;go/pkg/preinit -->
<g id="node20" class="node">
<title>github.com/0magnet/audioprism&#45;go/pkg/preinit</title>
<g id="a_node20"><a xlink:href="https://pkg.go.dev/github.com/0magnet/audioprism-go/pkg/preinit" xlink:title="github.com/0magnet/audioprism&#45;go/pkg/preinit\l33 / 1.1KB\l" target="_graphviz">
<polygon fill="none" stroke="#918907" stroke-width="2" stroke-opacity="0.698039" points="288,-562 0,-562 0,-526 288,-526 288,-562"/>
<text xml:space="preserve" text-anchor="start" x="8" y="-547.25" font-family="Times,serif" font-size="10.00">github.com/0magnet/audioprism&#45;go/pkg/preinit</text>
<text xml:space="preserve" text-anchor="start" x="8" y="-534.5" font-family="Times,serif" font-size="10.00">33 / 1.1KB</text>
</a>
</g>
</g>
<!-- github.com/0magnet/audioprism&#45;go/pkg/ui/core&#45;&gt;github.com/0magnet/audioprism&#45;go/pkg/spectrogram -->
<g id="edge34" class="edge">
<title>github.com/0magnet/audioprism&#45;go/pkg/ui/core:e&#45;&gt;github.com/0magnet/audioprism&#45;go/pkg/spectrogram</title>
<path fill="none" stroke="#071791" stroke-width="2" stroke-opacity="0.698039" d="M1171,-132C1283.07,-132 1387.37,-231.97 1432.92,-282.49"/>
<polygon fill="#071791" fill-opacity="0.698039" stroke="#071791" stroke-width="2" stroke-opacity="0.698039" points="1430.23,-284.74 1439.47,-289.91 1435.47,-280.1 1430.23,-284.74"/>
</g>
<!-- github.com/0magnet/audioprism&#45;go/pkg/ui/fyne&#45;&gt;github.com/0magnet/audioprism&#45;go/pkg/spectrogram -->
<g id="edge35" class="edge">
<title>github.com/0magnet/audioprism&#45;go/pkg/ui/fyne:e&#45;&gt;github.com/0magnet/audioprism&#45;go/pkg/spectrogram</title>
<path fill="none" stroke="#071791" stroke-width="2" stroke-opacity="0.698039" d="M1171,-426C1265.73,-426 1366.2,-371.02 1419.17,-337.09"/>
<polygon fill="#071791" fill-opacity="0.698039" stroke="#071791" stroke-width="2" stroke-opacity="0.698039" points="1421.05,-340.04 1427.51,-331.64 1417.23,-334.18 1421.05,-340.04"/>
</g>
<!-- github.com/0magnet/audioprism&#45;go/pkg/ui/tcell&#45;&gt;github.com/0magnet/audioprism&#45;go/pkg/spectrogram -->
<g id="edge36" class="edge">
<title>github.com/0magnet/audioprism&#45;go/pkg/ui/tcell:e&#45;&gt;github.com/0magnet/audioprism&#45;go/pkg/spectrogram</title>
<path fill="none" stroke="#071791" stroke-width="2" stroke-opacity="0.698039" d="M1171,-334C1207.09,-334 1245.67,-332.16 1282.42,-329.52"/>
<polygon fill="#071791" fill-opacity="0.698039" stroke="#071791" stroke-width="2" stroke-opacity="0.698039" points="1282.61,-333.01 1292.32,-328.78 1282.09,-326.03 1282.61,-333.01"/>
</g>
<!-- github.com/0magnet/audioprism&#45;go/testing/img -->
<g id="node27" class="node">
<title>github.com/0magnet/audioprism&#45;go/testing/img</title>
<g id="a_node27"><a xlink:href="https://pkg.go.dev/github.com/0magnet/audioprism-go/testing/img" xlink:title="github.com/0magnet/audioprism&#45;go/testing/img\l96 / 2.7KB\l" target="_graphviz">
<polygon fill="none" stroke="#5c0791" stroke-width="2" stroke-opacity="0.698039" points="288,-616 0,-616 0,-580 288,-580 288,-616"/>
<text xml:space="preserve" text-anchor="start" x="8" y="-601.25" font-family="Times,serif" font-size="10.00">github.com/0magnet/audioprism&#45;go/testing/img</text>
<text xml:space="preserve" text-anchor="start" x="8" y="-588.5" font-family="Times,serif" font-size="10.00">96 / 2.7KB</text>
</a>
</g>
</g>
<!-- github.com/0magnet/audioprism&#45;go/testing/txt -->
<g id="node28" class="node">
<title>github.com/0magnet/audioprism&#45;go/testing/txt</title>
<g id="a_node28"><a xlink:href="https://pkg.go.dev/github.com/0magnet/audioprism-go/testing/txt" xlink:title="github.com/0magnet/audioprism&#45;go/testing/txt\l44 / 1.0KB\l" target="_graphviz">
<polygon fill="none" stroke="#0a0791" stroke-width="2" stroke-opacity="0.698039" points="288,-670 0,-670 0,-634 288,-634 288,-670"/>
<text xml:space="preserve" text-anchor="start" x="8" y="-655.25" font-family="Times,serif" font-size="10.00">github.com/0magnet/audioprism&#45;go/testing/txt</text>
<text xml:space="preserve" text-anchor="start" x="8" y="-642.5" font-family="Times,serif" font-size="10.00">44 / 1.0KB</text>
</a>
</g>
</g>
<!-- github.com/0magnet/audioprism&#45;go/xy -->
<g id="node29" class="node">
<title>github.com/0magnet/audioprism&#45;go/xy</title>
<g id="a_node29"><a xlink:href="https://pkg.go.dev/github.com/0magnet/audioprism-go/xy" xlink:title="github.com/0magnet/audioprism&#45;go/xy\l14 / 292B\l" target="_graphviz">
<polygon fill="none" stroke="#910d07" stroke-width="2" stroke-opacity="0.698039" points="252,-63 36,-63 36,-27 252,-27 252,-63"/>
<text xml:space="preserve" text-anchor="start" x="44" y="-48.25" font-family="Times,serif" font-size="10.00">github.com/0magnet/audioprism&#45;go/xy</text>
<text xml:space="preserve" text-anchor="start" x="44" y="-35.5" font-family="Times,serif" font-size="10.00">14 / 292B</text>
</a>
</g>
</g>
<!-- github.com/0magnet/audioprism&#45;go/xy&#45;&gt;github.com/0magnet/audioprism&#45;go/internal/flags -->
<g id="edge37" class="edge">
<title>github.com/0magnet/audioprism&#45;go/xy:e&#45;&gt;github.com/0magnet/audioprism&#45;go/internal/flags</title>
<path fill="none" stroke="#670791" stroke-width="2" stroke-opacity="0.698039" d="M253,-45C332.64,-45 322.59,-122.11 396,-153 403.32,-156.08 410.94,-158.81 418.72,-161.24"/>
<polygon fill="#670791" fill-opacity="0.698039" stroke="#670791" stroke-width="2" stroke-opacity="0.698039" points="417.59,-164.56 428.17,-163.97 419.53,-157.83 417.59,-164.56"/>
</g>
<!-- github.com/0magnet/audioprism&#45;go/xy/commands -->
<g id="node30" class="node">
<title>github.com/0magnet/audioprism&#45;go/xy/commands</title>
<g id="a_node30"><a xlink:href="https://pkg.go.dev/github.com/0magnet/audioprism-go/xy/commands" xlink:title="github.com/0magnet/audioprism&#45;go/xy/commands\l190 / 5.6KB\l" target="_graphviz">
<polygon fill="none" stroke="#916a07" stroke-width="2" stroke-opacity="0.698039" points="720,-36 432,-36 432,0 720,0 720,-36"/>
<text xml:space="preserve" text-anchor="start" x="440" y="-21.25" font-family="Times,serif" font-size="10.00">github.com/0magnet/audioprism&#45;go/xy/commands</text>
<text xml:space="preserve" text-anchor="start" x="440" y="-8.5" font-family="Times,serif" font-size="10.00">190 / 5.6KB</text>
</a>
</g>
</g>
<!-- github.com/0magnet/audioprism&#45;go/xy&#45;&gt;github.com/0magnet/audioprism&#45;go/xy/commands -->
<g id="edge38" class="edge">
<title>github.com/0magnet/audioprism&#45;go/xy:e&#45;&gt;github.com/0magnet/audioprism&#45;go/xy/commands</title>
<path fill="none" stroke="#916a07" stroke-width="2" stroke-opacity="0.698039" d="M253,-45C307.03,-45 365.98,-41.18 418.5,-36.41"/>
<polygon fill="#916a07" fill-opacity="0.698039" stroke="#916a07" stroke-width="2" stroke-opacity="0.698039" points="418.71,-39.91 428.34,-35.49 418.06,-32.94 418.71,-39.91"/>
</g>
</g>
</svg>
